/* XPM */
static char * icewm_xpm[] = {
"50 17 16 1",
" 	c None",
".	c #49A010",
"+	c #499F10",
"@	c #000000",
"#	c #3A7F0D",
"$	c #46990F",
"%	c #42910F",
"&	c #3C830D",
"*	c #44950F",
"=	c #489F10",
"-	c #408B0E",
";	c #418F0E",
">	c #418E0E",
",	c #479C10",
"'	c #3E880E",
")	c #3B800D",
"                                                  ",
"                                             .    ",
"                                     ..   . +.    ",
"                                            ...   ",
"                                           ....   ",
"                               @@@@   @@@@.....#  ",
"                              @@  @@ @@..@....$#  ",
"   @@@@ @@@@ @@@   @@@  @@@@@ @@  @@ @@..++...%#  ",
"  @@ @@ @@  @@ @@ @@ @@ @@ @@ @@  @@ .@@@.....&#  ",
"  @@ @@ @@  @@@@@ @@@@@ @@ @@ @@  @@... @@...*##  ",
"  @@ @@ @@  @@    @@    @@ @@ @@  @@.@. @@..=&##  ",
"   @@@@ @@   @@@@  @@@@ @@ @@  @@@@ .@@@@...-###  ",
"     @@                             .. ....;###   ",
"   @@@                              .. ...>####   ",
"                                       .,'####    ",
"                                       ;)###      ",
"                                                  "};
